<?xml version="1.0" encoding="UTF-8" standalone="no"?>
<!-- Created with Inkscape (http://www.inkscape.org/) -->
<svg xmlns:rdf="http://www.w3.org/1999/02/22-rdf-syntax-ns#" xmlns="http://www.w3.org/2000/svg" height="80" width="116" version="1.1" xmlns:cc="http://creativecommons.org/ns#" xmlns:xlink="http://www.w3.org/1999/xlink" viewBox="0 0 116 80" xmlns:dc="http://purl.org/dc/elements/1.1/">
 <title>Ingress cat with US</title>
 <metadata>
  <rdf:RDF>
   <cc:Work rdf:about="">
    <dc:format>image/svg+xml</dc:format>
    <dc:type rdf:resource="http://purl.org/dc/dcmitype/StillImage"/>
    <dc:title>Ingress cat with US</dc:title>
    <dc:creator>
     <cc:Agent>
      <dc:title>Mingye Wang (Arthur2e5) &lt;arthur200126@gmail.com&gt;</dc:title>
     </cc:Agent>
    </dc:creator>
    <cc:license rdf:resource="http://creativecommons.org/licenses/by/3.0/"/>
    <dc:description>The Ultra Strike Image is a png and can be obtained from the releases. https://github.com/Arthur2e5/svg-emoticons/releases/download/v0.1/USL8.png</dc:description>
   </cc:Work>
   <cc:License rdf:about="http://creativecommons.org/licenses/by/3.0/">
    <cc:permits rdf:resource="http://creativecommons.org/ns#Reproduction"/>
    <cc:permits rdf:resource="http://creativecommons.org/ns#Distribution"/>
    <cc:requires rdf:resource="http://creativecommons.org/ns#Notice"/>
    <cc:requires rdf:resource="http://creativecommons.org/ns#Attribution"/>
    <cc:permits rdf:resource="http://creativecommons.org/ns#DerivativeWorks"/>
   </cc:License>
  </rdf:RDF>
 </metadata>
 <defs>
  <filter id="a" width="1" style="color-interpolation-filters:sRGB">
   <feGaussianBlur stdDeviation="1"/>
  </filter>
 </defs>
 <g stroke-linejoin="round" transform="translate(29,-8)" stroke="#000" stroke-linecap="round" stroke-width="2" fill="none">
  <g filter="url(#a)" stroke="#cf7a6e" stroke-width="1.1" transform="translate(-4,6)">
   <title>face-addon</title>
   <path d="m24.94 43.58-8.001 6.589" transform="matrix(.8562 0 0 .8249 3.678 7.764)"/>
   <path d="m24.94 43.58-8.001 6.589" transform="matrix(.8562 0 0 .8249 9.469 6.866)"/>
   <path d="m33.52 47.26-6.85 5.435"/>
   <path d="m73.71 57.98-5.792 5.567"/>
   <path d="m38.45 49.03-6.85 5.435"/>
   <path stroke="none" d="m90.18 72.1 1.871 2.058"/>
   <path d="m80.58 59.08-6.85 5.435"/>
  </g>
  <path d="m86.84 22.49-16.84 14.79-20.58-7.08c-0.578-5.98-1.16-11.96-2.758-18.42-6.75 4.38-14.14 11.78-20.88 19-21.15 15.43-19.24 28.45-18.22 38.21-10.47-4.01-14.5-12.74-17.22-23.8"/>
  <path d="m79.11 45.47c2.589 1.477 4.502 1.92 5.857 5.141"/>
  <path d="m32.53 34.66c2.935-0.2665 6.684-0.2619 10.87-0.1109"/>
  <path stroke-width="1.5" d="m41 53.46c-5.866 5.071-3.963 7.853-1.161 9.825 3.693 2.599 9.083 0.1687 10.74-4.202-1.902 6.259-1.712 9.145 3.037 9.376 6.955 0.3391 8.745-2.824 9.074-7.582"/>
 </g>
 <circle cy="35.31" cx="65.53" r="5.55"/>
 <circle cy="48.02" cx="105.4" r="5.55"/>
 <text style="text-anchor:middle;text-align:center" xml:space="preserve" font-size="15px" y="75" x="58" font-family="'Source Han Sans CN', 'Source Han Sans', 'Hiragino Sans GB', sans-serif" fill="#000000">肛死你这<tspan fill="#0000ff">蓝军</tspan></text>
 <image xlink:href="file:///dnld/L8US.png" transform="rotate(122.8)" height="24.19" width="33.26" y="-49.18" x="2.675" preserveAspectRatio="none"/>
</svg>
