<?xml version="1.0" encoding="UTF-8" standalone="no"?>
<!-- Created with Inkscape (http://www.inkscape.org/) -->
<svg xmlns:rdf="http://www.w3.org/1999/02/22-rdf-syntax-ns#" xmlns="http://www.w3.org/2000/svg" height="69" width="87" version="1.1" xmlns:cc="http://creativecommons.org/ns#" xmlns:dc="http://purl.org/dc/elements/1.1/" viewBox="0 0 87 69">
 <title>Basic Cat</title>
 <metadata>
  <rdf:RDF>
   <cc:Work rdf:about="">
    <dc:format>image/svg+xml</dc:format>
    <dc:type rdf:resource="http://purl.org/dc/dcmitype/StillImage"/>
    <dc:title>Basic Cat</dc:title>
    <dc:creator>
     <cc:Agent>
      <dc:title>Mingye Wang (Arthur2e5) &lt;arthur200126@gmail.com&gt;</dc:title>
     </cc:Agent>
    </dc:creator>
    <cc:license rdf:resource="http://creativecommons.org/licenses/by/3.0/"/>
   </cc:Work>
   <cc:License rdf:about="http://creativecommons.org/licenses/by/3.0/">
    <cc:permits rdf:resource="http://creativecommons.org/ns#Reproduction"/>
    <cc:permits rdf:resource="http://creativecommons.org/ns#Distribution"/>
    <cc:requires rdf:resource="http://creativecommons.org/ns#Notice"/>
    <cc:requires rdf:resource="http://creativecommons.org/ns#Attribution"/>
    <cc:permits rdf:resource="http://creativecommons.org/ns#DerivativeWorks"/>
   </cc:License>
  </rdf:RDF>
 </metadata>
 <path stroke-linejoin="round" d="m7.558 68.99c-1.02-9.758-2.929-22.78 18.22-38.2 6.741-7.221 14.14-14.62 20.88-19.01 1.598 6.455 2.18 12.44 2.758 18.42l20.58 7.091 16.84-14.8" stroke="#000" stroke-linecap="round" stroke-width="2" fill="none"/>
 <circle cy="43.31" cx="34.54" r="5.547"/>
 <circle cy="56.02" cx="76.46" r="5.547"/>
 <g stroke-linejoin="round" stroke="#000" stroke-linecap="round" fill="none">
  <path stroke-width="1.5" d="m41.19 53.44c-5.866 5.071-3.963 7.853-1.161 9.825 3.693 2.599 9.083 0.1687 10.74-4.202-1.902 6.259-1.712 9.145 3.037 9.376 6.955 0.3391 8.745-2.824 9.074-7.582"/>
  <path stroke-width="2" d="m79.11 45.47c2.589 1.477 4.502 1.92 5.857 5.141"/>
  <path stroke-width="2" d="m32.54 34.66c2.935-0.2665 6.684-0.2619 10.87-0.1109"/>
 </g>
</svg>
