<?xml version="1.0" encoding="UTF-8" standalone="no"?>
<!-- Created with Inkscape (http://www.inkscape.org/) -->
<svg xmlns:rdf="http://www.w3.org/1999/02/22-rdf-syntax-ns#" xmlns="http://www.w3.org/2000/svg" height="69" width="87" version="1.1" xmlns:cc="http://creativecommons.org/ns#" xmlns:dc="http://purl.org/dc/elements/1.1/" viewBox="0 0 87 69">
 <title>Acctuate Original Cat</title>
 <metadata>
  <rdf:RDF>
   <cc:Work rdf:about="">
    <dc:format>image/svg+xml</dc:format>
    <dc:type rdf:resource="http://purl.org/dc/dcmitype/StillImage"/>
    <dc:title>Basic Cat</dc:title>
    <dc:creator>
     <cc:Agent>
      <dc:title>Mingye Wang (Arthur2e5) &lt;arthur200126@gmail.com&gt;</dc:title>
     </cc:Agent>
    </dc:creator>
    <cc:license rdf:resource="http://creativecommons.org/licenses/by/3.0/"/>
   </cc:Work>
   <cc:License rdf:about="http://creativecommons.org/licenses/by/3.0/">
    <cc:permits rdf:resource="http://creativecommons.org/ns#Reproduction"/>
    <cc:permits rdf:resource="http://creativecommons.org/ns#Distribution"/>
    <cc:requires rdf:resource="http://creativecommons.org/ns#Notice"/>
    <cc:requires rdf:resource="http://creativecommons.org/ns#Attribution"/>
    <cc:permits rdf:resource="http://creativecommons.org/ns#DerivativeWorks"/>
   </cc:License>
  </rdf:RDF>
 </metadata>
 <g stroke="#000">
  <path stroke-linejoin="round" d="m7.56 69c-1.02-9.76-2.93-22.8 18.2-38.2 6.74-7.22 14.1-14.6 20.9-19 1.6 6.46 2.18 12.4 2.76 18.4l20.6 7.09 16.8-14.8" stroke-linecap="round" stroke-width="2" fill="none"/>
  <circle cy="43.3" cx="35.3" r="5.55"/>
  <circle cy="58" cx="80.4" r="5.55"/>
  <g stroke-linejoin="round" stroke-linecap="round" fill="none">
   <path d="m45 53.1c-4.02 1.3-5.6 7.04-1.77 9.82 3.69 2.6 9.08 0.169 10.7-4.2-1.9 6.26-0.724 9.49 4.03 9.49 5.3-0 6.85-2.06 7.18-6.82" stroke-width="1.5"/>
   <path d="m83.1 45.5c2.59 1.48 4.13 2.67 5.48 5.89" stroke-width="2"/>
   <path stroke-width="2" d="m33.1 34.2c2.94-0.266 6.68-0.262 10.9-0.111"/>
  </g>
 </g>
</svg>
