<?xml version="1.0" encoding="UTF-8" standalone="no"?>
<!-- Created with Inkscape (http://www.inkscape.org/) -->

<svg
   xmlns:dc="http://purl.org/dc/elements/1.1/"
   xmlns:cc="http://creativecommons.org/ns#"
   xmlns:rdf="http://www.w3.org/1999/02/22-rdf-syntax-ns#"
   xmlns:svg="http://www.w3.org/2000/svg"
   xmlns="http://www.w3.org/2000/svg"
   xmlns:sodipodi="http://sodipodi.sourceforge.net/DTD/sodipodi-0.dtd"
   xmlns:inkscape="http://www.inkscape.org/namespaces/inkscape"
   sodipodi:docname="cat-shy-ero-2.svg"
   height="69"
   viewBox="0 0 87 69"
   width="87"
   version="1.1"
   inkscape:version="0.91pre2 r13516"
   id="svg2">
  <title
     id="title4">Shy Cat and a bit ero</title>
  <metadata
     id="metadata6">
    <rdf:RDF>
      <cc:Work
         rdf:about="">
        <dc:format>image/svg+xml</dc:format>
        <dc:type
           rdf:resource="http://purl.org/dc/dcmitype/StillImage" />
        <dc:title>Shy Cat and a bit ero</dc:title>
        <dc:creator>
          <cc:Agent>
            <dc:title>Mingye Wang (Arthur2e5) &lt;arthur200126@gmail.com&gt;</dc:title>
          </cc:Agent>
        </dc:creator>
        <cc:license
           rdf:resource="http://creativecommons.org/licenses/by/3.0/" />
      </cc:Work>
      <cc:License
         rdf:about="http://creativecommons.org/licenses/by/3.0/">
        <cc:permits
           rdf:resource="http://creativecommons.org/ns#Reproduction" />
        <cc:permits
           rdf:resource="http://creativecommons.org/ns#Distribution" />
        <cc:requires
           rdf:resource="http://creativecommons.org/ns#Notice" />
        <cc:requires
           rdf:resource="http://creativecommons.org/ns#Attribution" />
        <cc:permits
           rdf:resource="http://creativecommons.org/ns#DerivativeWorks" />
      </cc:License>
    </rdf:RDF>
  </metadata>
  <defs
     id="defs8">
    <filter
       inkscape:collect="always"
       style="color-interpolation-filters:sRGB"
       id="filter4293"
       x="-0.021463043"
       width="1.0429261"
       y="-0.049813322"
       height="1.0996266">
      <feGaussianBlur
         inkscape:collect="always"
         stdDeviation="0.59519251"
         id="feGaussianBlur4295" />
    </filter>
    <filter
       inkscape:collect="always"
       style="color-interpolation-filters:sRGB"
       id="filter4225"
       x="-0.045414624"
       width="1.0908292"
       y="-0.048759518"
       height="1.097519">
      <feGaussianBlur
         inkscape:collect="always"
         stdDeviation="0.2564226"
         id="feGaussianBlur4227" />
    </filter>
    <filter
       inkscape:collect="always"
       style="color-interpolation-filters:sRGB"
       id="filter4229"
       x="-0.057114277"
       width="1.1142286"
       y="-0.051194519"
       height="1.102389">
      <feGaussianBlur
         inkscape:collect="always"
         stdDeviation="0.2564226"
         id="feGaussianBlur4231" />
    </filter>
    <filter
       inkscape:collect="always"
       style="color-interpolation-filters:sRGB"
       id="filter4233"
       x="-0.034653822"
       width="1.0693076"
       y="-0.037789787"
       height="1.0755796">
      <feGaussianBlur
         inkscape:collect="always"
         stdDeviation="0.2564226"
         id="feGaussianBlur4235" />
    </filter>
  </defs>
  <sodipodi:namedview
     fit-margin-left="0"
     inkscape:zoom="6.374209"
     borderopacity="1"
     inkscape:current-layer="g72"
     inkscape:cx="52.668724"
     inkscape:cy="45.309409"
     inkscape:window-maximized="1"
     showgrid="false"
     fit-margin-right="0"
     showguides="false"
     bordercolor="#666666"
     inkscape:window-x="-8"
     guidetolerance="10"
     objecttolerance="10"
     inkscape:window-y="-8"
     fit-margin-bottom="0"
     inkscape:window-width="1536"
     inkscape:pageopacity="0"
     inkscape:pageshadow="2"
     pagecolor="#ffffff"
     gridtolerance="10"
     inkscape:window-height="803"
     fit-margin-top="0"
     id="namedview70" />
  <path
     sodipodi:nodetypes="cccccccc"
     style="fill:none;stroke:#000000;stroke-width:0.80000001;stroke-linecap:round;stroke-linejoin:round;stroke-miterlimit:4;stroke-dasharray:none;filter:url(#filter4229)"
     inkscape:connector-curvature="0"
     d="m 8.001,32.446 c 0.1638,-0.653 0.9641,-1.258 -1.45,-2.11 1.2029,-3.139 10.014,-6.427 5.529,-1.027 5.987963,0.279535 2.912912,4.976573 0.3145,7.0593 0.24734,1.4663 -0.22701,1.1168 -1.2575,1.0522 -1.107,1.186 -2.212,1.81 -1.8799,-0.738 -5.6832,2.119 -5.8399,-0.516 -1.2551,-4.236 z"
     id="path86" />
  <path
     sodipodi:nodetypes="cccccc"
     style="fill:none;stroke:#000000;stroke-width:0.80000001;stroke-linecap:round;stroke-linejoin:round;stroke-miterlimit:4;stroke-dasharray:none;filter:url(#filter4233)"
     inkscape:connector-curvature="0"
     d="m 11.981,14.199 c -2.9675,0.57041 -10.153,7.1917 1.4421,6.2122 -0.89579,4.8686 3.5878,3.8281 5.8794,1.2774 1.4741,3.2064 6.0358,1.7363 2.6624,-3.2741 1.5453,-0.62862 5.2238,-4.1415 0.55466,-6.2122 -3.3178,-9.5727 -9.6354,-2.0609 -10.539,1.9968 z"
     id="path88" />
  <path
     sodipodi:nodetypes="ccccccc"
     style="fill:none;stroke:#000000;stroke-width:0.80000001;stroke-linecap:round;stroke-linejoin:round;stroke-miterlimit:4;stroke-dasharray:none;filter:url(#filter4225)"
     inkscape:connector-curvature="0"
     d="m 67.336,14.865 c 2.4552,-3.4187 5.0147,-4.1335 7.7653,0.11093 l 0.55466,3.1061 c 1.6758,2.226 0.16585,2.461 -0.3328,3.328 -1.8725,0.08371 -2.5776,2.9694 -5.7685,-0.11093 -5.4979,7.3003 -7.9586,0.62313 -4.1045,-0.55466 -2.9266,-1.0374 -4.5691,-7.5359 1.8859,-5.8794 z"
     id="path90" />
  <g
     id="g92"
     style="stroke:#cf7a6e;stroke-width:1.10000002;stroke-linecap:round;stroke-linejoin:round;stroke-miterlimit:4;stroke-dasharray:none;stroke-opacity:1;filter:url(#filter4293)">
    <title
       id="title94">face-addon</title>
    <path
       d="m 24.944,43.585 -8.001,6.5891"
       transform="matrix(0.85618,0,0,0.82492,3.6778,7.764)"
       inkscape:connector-curvature="0"
       id="path96"
       style="stroke-width:1.3088932;stroke-miterlimit:4;stroke-dasharray:none" />
    <path
       d="m 24.944,43.585 -8.001,6.5891"
       transform="matrix(0.85618,0,0,0.82492,9.4687,6.8659)"
       inkscape:connector-curvature="0"
       id="path98"
       style="stroke-width:1.3088932;stroke-miterlimit:4;stroke-dasharray:none" />
    <path
       d="m 24.944,43.585 -8.001,6.5891"
       transform="matrix(0.85618,0,0,0.82492,9.7461,10.693)"
       inkscape:connector-curvature="0"
       id="path100"
       style="stroke-width:1.3088932;stroke-miterlimit:4;stroke-dasharray:none" />
    <path
       d="m 24.944,43.585 -8.001,6.5891"
       transform="matrix(0.85618,0,0,0.82492,16.347,11.581)"
       inkscape:connector-curvature="0"
       id="path102"
       style="stroke-width:1.3088932;stroke-miterlimit:4;stroke-dasharray:none" />
    <path
       d="m 24.944,43.585 -8.001,6.5891"
       transform="matrix(0.85618,0,0,0.82492,19.328,13.385)"
       inkscape:connector-curvature="0"
       id="path104"
       style="stroke-width:1.3088932;stroke-miterlimit:4;stroke-dasharray:none" />
    <path
       d="m 24.944,43.585 -8.001,6.5891"
       transform="matrix(0.85618,0,0,0.82492,24.584,14.012)"
       inkscape:connector-curvature="0"
       id="path106"
       style="stroke-width:1.3088932;stroke-miterlimit:4;stroke-dasharray:none" />
    <path
       d="m 24.944,43.585 -8.001,6.5891"
       transform="matrix(0.85618,0,0,0.82492,27.884,16.462)"
       inkscape:connector-curvature="0"
       id="path108"
       style="stroke-width:1.3088932;stroke-miterlimit:4;stroke-dasharray:none" />
    <path
       d="m 23.001,44.257 -6.0575,5.9167"
       sodipodi:nodetypes="cc"
       transform="matrix(0.85618,0,0,0.82492,35.205,16.683)"
       inkscape:connector-curvature="0"
       id="path110"
       style="stroke-width:1.3088932;stroke-miterlimit:4;stroke-dasharray:none" />
    <path
       d="m 23.519,44.123 -6.5758,6.0511"
       sodipodi:nodetypes="cc"
       transform="matrix(0.85618,0,0,0.82492,40.641,16.905)"
       inkscape:connector-curvature="0"
       id="path112"
       style="stroke-width:1.3088932;stroke-miterlimit:4;stroke-dasharray:none" />
    <path
       d="m 24.944,43.585 -8.001,6.5891"
       transform="matrix(0.85618,0,0,0.82492,42.638,18.458)"
       inkscape:connector-curvature="0"
       id="path114"
       style="stroke-width:1.3088932;stroke-miterlimit:4;stroke-dasharray:none" />
    <path
       d="M 27.536,40.627 16.943,50.174"
       sodipodi:nodetypes="cc"
       transform="matrix(0.85618,0,0,0.82492,42.748,22.785)"
       inkscape:connector-curvature="0"
       id="path116"
       style="stroke-width:1.3088932;stroke-miterlimit:4;stroke-dasharray:none" />
    <path
       d="m 24.944,43.585 -8.001,6.5891"
       transform="matrix(0.85618,0,0,0.82492,47.186,22.674)"
       inkscape:connector-curvature="0"
       id="path118"
       style="stroke-width:1.3088932;stroke-miterlimit:4;stroke-dasharray:none" />
    <path
       d="m 24.944,43.585 -8.001,6.5891"
       transform="matrix(0.85618,0,0,0.82492,49.959,24.338)"
       inkscape:connector-curvature="0"
       id="path120"
       style="stroke-width:1.3088932;stroke-miterlimit:4;stroke-dasharray:none" />
    <path
       d="m 24.944,43.585 -7.2236,7.127"
       sodipodi:nodetypes="cc"
       transform="matrix(0.85618,0,0,0.82492,53.176,25.336)"
       inkscape:connector-curvature="0"
       id="path122"
       style="stroke-width:1.3088932;stroke-miterlimit:4;stroke-dasharray:none" />
    <path
       d="m 24.944,43.585 -7.2236,7.127"
       sodipodi:nodetypes="cc"
       transform="matrix(0.85618,0,0,0.82492,56.726,26.002)"
       inkscape:connector-curvature="0"
       id="path124"
       style="stroke-width:1.3088932;stroke-miterlimit:4;stroke-dasharray:none" />
    <path
       d="m 24.944,43.585 -7.2236,7.127"
       sodipodi:nodetypes="cc"
       transform="matrix(0.85618,0,0,0.82492,63.382,29.663)"
       inkscape:connector-curvature="0"
       id="path126"
       style="stroke-width:1.3088932;stroke-miterlimit:4;stroke-dasharray:none" />
    <path
       d="m 24.944,43.585 -7.2236,7.127"
       sodipodi:nodetypes="cc"
       transform="matrix(0.85618,0,0,0.82492,59.388,28.442)"
       inkscape:connector-curvature="0"
       id="path128"
       style="stroke-width:1.3088932;stroke-miterlimit:4;stroke-dasharray:none" />
  </g>
  <g
     inkscape:label="butt"
     inkscape:groupmode="layer"
     id="g72">
    <path
       sodipodi:nodetypes="cccccc"
       style="fill:none;stroke:#000000;stroke-width:2;stroke-linecap:round;stroke-linejoin:round"
       inkscape:connector-curvature="0"
       d="M 8.0582,68.986 C 7.038,59.228 5.129,46.211 26.2782,30.784 c 6.741,-7.221 14.136,-14.623 20.879,-19.008 1.5977,6.455 2.1801,12.437 2.7576,18.417 l 20.583,7.091 16.841,-14.798"
       id="path74" />
    <circle
       r="5.5465999"
       cx="35.834"
       cy="42.709"
       id="circle76" />
    <circle
       r="5.5465999"
       cx="81.206001"
       cy="57.463001"
       id="circle78" />
    <path
       sodipodi:nodetypes="ccc"
       style="fill:none;stroke:#000000;stroke-width:1.5;stroke-linecap:round;stroke-linejoin:round"
       inkscape:connector-curvature="0"
       d="m 46.928,52.36 c -14.007,8.9527 3.741,15.204 6.9887,6.6559 -5.7643,14.642 15.129,7.9682 12.424,2.1077"
       id="path80" />
    <path
       sodipodi:nodetypes="cc"
       style="fill:none;stroke:#000000;stroke-width:2;stroke-linecap:round;stroke-linejoin:round"
       inkscape:connector-curvature="0"
       d="m 83.865,43.929 c 2.8196,1.5268 3.4972,3.3478 3.6608,5.7685"
       id="path82" />
    <path
       style="fill:none;stroke:#000000;stroke-width:2;stroke-linecap:round;stroke-linejoin:round"
       inkscape:connector-curvature="0"
       d="M 33.834,34.056 44.706,33.945"
       id="path84" />
  </g>
</svg>
