<?xml version="1.0" encoding="UTF-8" standalone="no"?>
<!-- Created with Inkscape (http://www.inkscape.org/) -->
<svg xmlns:rdf="http://www.w3.org/1999/02/22-rdf-syntax-ns#" xmlns="http://www.w3.org/2000/svg" height="69" viewBox="0 0 87 69" width="87" version="1.1" xmlns:cc="http://creativecommons.org/ns#" xmlns:dc="http://purl.org/dc/elements/1.1/">
 <title>Basic Cat</title>
 <metadata>
  <rdf:RDF>
   <cc:Work rdf:about="">
    <dc:format>image/svg+xml</dc:format>
    <dc:type rdf:resource="http://purl.org/dc/dcmitype/StillImage"/>
    <dc:title>Basic Cat</dc:title>
    <dc:creator>
     <cc:Agent>
      <dc:title>Mingye Wang (Arthur2e5) &lt;arthur200126@gmail.com&gt;</dc:title>
     </cc:Agent>
    </dc:creator>
    <cc:license rdf:resource="http://creativecommons.org/licenses/by/3.0/"/>
   </cc:Work>
   <cc:License rdf:about="http://creativecommons.org/licenses/by/3.0/">
    <cc:permits rdf:resource="http://creativecommons.org/ns#Reproduction"/>
    <cc:permits rdf:resource="http://creativecommons.org/ns#Distribution"/>
    <cc:requires rdf:resource="http://creativecommons.org/ns#Notice"/>
    <cc:requires rdf:resource="http://creativecommons.org/ns#Attribution"/>
    <cc:permits rdf:resource="http://creativecommons.org/ns#DerivativeWorks"/>
   </cc:License>
  </rdf:RDF>
 </metadata>
 <path stroke-linejoin="round" d="m7.5582 68.986c-1.0202-9.758-2.9292-22.775 18.22-38.202 6.741-7.221 14.136-14.623 20.879-19.008 1.5977 6.455 2.1801 12.437 2.7576 18.417l20.583 7.091 16.841-14.798" stroke="#000" stroke-linecap="round" stroke-width="2" fill="none"/>
 <circle cx="34.535" cy="43.309" r="5.5466"/>
 <circle cx="76.455" cy="56.023" r="5.5466"/>
 <g stroke-linejoin="round" stroke="#000" stroke-linecap="round" fill="none">
  <path d="m41.193 53.439c-12.002 10.376 6.3351 14.171 9.5829 5.6228-4.3031 14.16 11.52 10.321 12.111 1.794" stroke-width="1.5"/>
  <path d="m79.114 45.47c2.589 1.4774 4.5018 1.9196 5.8571 5.141" stroke-width="2"/>
  <path d="m32.535 34.656c2.9351-0.26654 6.6839-0.26187 10.871-0.11093" stroke-width="2"/>
 </g>
</svg>
