<?xml version="1.0" encoding="UTF-8" standalone="no"?>
<!-- Created with Inkscape (http://www.inkscape.org/) -->
<svg xmlns:rdf="http://www.w3.org/1999/02/22-rdf-syntax-ns#" xmlns="http://www.w3.org/2000/svg" height="69" viewBox="0 0 87 69" width="87" version="1.1" xmlns:cc="http://creativecommons.org/ns#" xmlns:dc="http://purl.org/dc/elements/1.1/">
 <title>Shy Cat and a bit ero</title>
 <metadata>
  <rdf:RDF>
   <cc:Work rdf:about="">
    <dc:format>image/svg+xml</dc:format>
    <dc:type rdf:resource="http://purl.org/dc/dcmitype/StillImage"/>
    <dc:title>Shy Cat and a bit ero</dc:title>
    <dc:creator>
     <cc:Agent>
      <dc:title>Mingye Wang (Arthur2e5) &lt;arthur200126@gmail.com&gt;</dc:title>
     </cc:Agent>
    </dc:creator>
    <cc:license rdf:resource="http://creativecommons.org/licenses/by/3.0/"/>
   </cc:Work>
   <cc:License rdf:about="http://creativecommons.org/licenses/by/3.0/">
    <cc:permits rdf:resource="http://creativecommons.org/ns#Reproduction"/>
    <cc:permits rdf:resource="http://creativecommons.org/ns#Distribution"/>
    <cc:requires rdf:resource="http://creativecommons.org/ns#Notice"/>
    <cc:requires rdf:resource="http://creativecommons.org/ns#Attribution"/>
    <cc:permits rdf:resource="http://creativecommons.org/ns#DerivativeWorks"/>
   </cc:License>
  </rdf:RDF>
 </metadata>
 <defs>
  <filter id="a" style="color-interpolation-filters:sRGB" height="1.1" width="1" y="-.05" x="-.021">
   <feGaussianBlur stdDeviation="0.6"/>
  </filter>
  <filter id="b" style="color-interpolation-filters:sRGB" height="1.1" width="1" y="-.04" x="-.017">
   <feGaussianBlur stdDeviation="0.5"/>
  </filter>
 </defs>
 <g stroke-linejoin="round" stroke-linecap="round">
  <g filter="url(#a)" stroke="#cf7a6e" stroke-width="1.1">
   <title>face-addon</title>
   <g stroke-width="1.309">
    <path d="m24.94 43.58-8.001 6.589" transform="matrix(.8562 0 0 .8249 3.678 7.764)"/>
    <path d="m24.94 43.58-8.001 6.589" transform="matrix(.8562 0 0 .8249 9.469 6.866)"/>
    <path d="m24.94 43.58-8.001 6.589" transform="matrix(.8562 0 0 .8249 9.746 10.69)"/>
    <path d="m24.94 43.58-8.001 6.589" transform="matrix(.8562 0 0 .8249 16.35 11.58)"/>
    <path d="m24.94 43.58-8.001 6.589" transform="matrix(.8562 0 0 .8249 19.33 13.38)"/>
    <path d="m24.94 43.58-8.001 6.589" transform="matrix(.8562 0 0 .8249 24.58 14.01)"/>
    <path d="m24.94 43.58-8.001 6.589" transform="matrix(.8562 0 0 .8249 27.88 16.46)"/>
    <path d="m23 44.26-6.058 5.917" transform="matrix(.8562 0 0 .8249 35.2 16.68)"/>
    <path d="m23.52 44.12-6.576 6.051" transform="matrix(.8562 0 0 .8249 40.64 16.9)"/>
    <path d="m24.94 43.58-8.001 6.589" transform="matrix(.8562 0 0 .8249 42.64 18.46)"/>
    <path d="m27.54 40.63-10.6 9.54" transform="matrix(.8562 0 0 .8249 42.75 22.78)"/>
    <path d="m24.94 43.58-8.001 6.589" transform="matrix(.8562 0 0 .8249 47.19 22.67)"/>
    <path d="m24.94 43.58-8.001 6.589" transform="matrix(.8562 0 0 .8249 49.96 24.34)"/>
    <path d="m24.94 43.58-7.224 7.127" transform="matrix(.8562 0 0 .8249 53.18 25.34)"/>
    <path d="m24.94 43.58-7.224 7.127" transform="matrix(.8562 0 0 .8249 56.73 26)"/>
    <path d="m24.94 43.58-7.224 7.127" transform="matrix(.8562 0 0 .8249 63.38 29.66)"/>
    <path d="m24.94 43.58-7.224 7.127" transform="matrix(.8562 0 0 .8249 59.39 28.44)"/>
   </g>
  </g>
  <g filter="url(#b)" stroke="#444" fill="none">
   <path d="m5.442 30.11c-0.6484-1.298-3.266-7.041 1.77-3.142 0.4027-5.364 8.009-2.409 5.09 1.227 6.054-3.463 3.543 2.322 0.942 4.549 3.482 3.773-0.04493 5.693-3.483 2.576-1.526-0.1248-3.994 1.789-4.53 1.08 0 0-2.308-1.713 0.2113-6.29z" stroke-width="0.7"/>
   <path d="m15.09 12.42c-2.968 0.5704-10.15 7.192 1.442 6.212-0.8958 4.869 3.588 3.828 5.879 1.277 2.144 3.831 7.517 3.119 2.662-3.274 1.545-0.6286 5.224-4.142 0.5547-6.212-3.318-9.573-9.635-2.061-10.54 1.997z" stroke-width="0.7"/>
   <path d="m67.34 14.86c2.455-3.419 5.015-4.134 7.765 0.1109l0.5547 3.106c1.676 2.226 0.1658 2.461-0.3328 3.328-1.872 0.08371-2.578 2.969-5.768-0.1109-5.498 7.3-7.959 0.6231-4.104-0.5547-2.927-1.037-4.569-7.536 1.886-5.879z" stroke-width=".7"/>
  </g>
  <path d="m7.558 68.99c-1.02-9.76-2.929-22.78 18.22-38.21 6.74-7.22 14.13-14.62 20.88-19 1.598 6.455 2.18 12.44 2.758 18.42l20.58 7.08 16.84-14.79" stroke="#000" stroke-width="2" fill="none"/>
 </g>
 <circle cx="34.53" cy="43.31" r="5.547"/>
 <circle cx="76.45" cy="56.02" r="5.547"/>
 <g stroke-linejoin="round" stroke="#000" stroke-linecap="round" fill="none">
  <path d="m41.19 53.44c-12 10.38 6.335 14.17 9.583 5.623-4.303 14.16 11.52 10.32 12.11 1.794" stroke-width="1.5"/>
  <path d="m79.11 45.47c2.589 1.477 4.502 1.92 5.857 5.141" stroke-width="2"/>
  <path d="m32.53 34.66c2.935-0.2665 6.684-0.2619 10.87-0.1109" stroke-width="2"/>
 </g>
</svg>
