<?xml version="1.0" encoding="UTF-8" standalone="no"?>
<!-- Created with Inkscape (http://www.inkscape.org/) -->

<svg
   xmlns:dc="http://purl.org/dc/elements/1.1/"
   xmlns:cc="http://creativecommons.org/ns#"
   xmlns:rdf="http://www.w3.org/1999/02/22-rdf-syntax-ns#"
   xmlns:svg="http://www.w3.org/2000/svg"
   xmlns="http://www.w3.org/2000/svg"
   xmlns:sodipodi="http://sodipodi.sourceforge.net/DTD/sodipodi-0.dtd"
   xmlns:inkscape="http://www.inkscape.org/namespaces/inkscape"
   id="svg4137"
   version="1.1"
   inkscape:version="0.91pre2 r13516"
   width="87"
   height="69"
   viewBox="0 0 87 69"
   sodipodi:docname="cat-basic - 副本.svg">
  <title
     id="title4">Shy Cat and a bit ero</title>
  <metadata
     id="metadata6">
    <rdf:RDF>
      <cc:Work
         rdf:about="">
        <dc:format>image/svg+xml</dc:format>
        <dc:type
           rdf:resource="http://purl.org/dc/dcmitype/StillImage" />
        <dc:title>Shy Cat and a bit ero</dc:title>
        <dc:creator>
          <cc:Agent>
            <dc:title>Mingye Wang (Arthur2e5) &lt;arthur200126@gmail.com&gt;</dc:title>
          </cc:Agent>
        </dc:creator>
        <cc:license
           rdf:resource="http://creativecommons.org/licenses/by/3.0/" />
      </cc:Work>
      <cc:License
         rdf:about="http://creativecommons.org/licenses/by/3.0/">
        <cc:permits
           rdf:resource="http://creativecommons.org/ns#Reproduction" />
        <cc:permits
           rdf:resource="http://creativecommons.org/ns#Distribution" />
        <cc:requires
           rdf:resource="http://creativecommons.org/ns#Notice" />
        <cc:requires
           rdf:resource="http://creativecommons.org/ns#Attribution" />
        <cc:permits
           rdf:resource="http://creativecommons.org/ns#DerivativeWorks" />
      </cc:License>
    </rdf:RDF>
  </metadata>
  <defs
     id="defs8">
    <filter
       inkscape:collect="always"
       style="color-interpolation-filters:sRGB"
       id="filter4293"
       x="-0.021463043"
       width="1.0429261"
       y="-0.049813322"
       height="1.0996266">
      <feGaussianBlur
         inkscape:collect="always"
         stdDeviation="0.59519251"
         id="feGaussianBlur4295" />
    </filter>
    <filter
       inkscape:collect="always"
       style="color-interpolation-filters:sRGB"
       id="filter4189"
       x="-0.017174843"
       width="1.0343497"
       y="-0.039826929"
       height="1.0796539">
      <feGaussianBlur
         inkscape:collect="always"
         stdDeviation="0.5128452"
         id="feGaussianBlur4191" />
    </filter>
  </defs>
  <sodipodi:namedview
     pagecolor="#ffffff"
     bordercolor="#666666"
     borderopacity="1"
     objecttolerance="10"
     gridtolerance="10"
     guidetolerance="10"
     inkscape:pageopacity="0"
     inkscape:pageshadow="2"
     inkscape:window-width="1536"
     inkscape:window-height="803"
     id="namedview4139"
     showgrid="false"
     fit-margin-top="0"
     fit-margin-left="0"
     fit-margin-right="0"
     fit-margin-bottom="0"
     inkscape:zoom="4.5072464"
     inkscape:cx="48.599424"
     inkscape:cy="47.950407"
     inkscape:window-x="-8"
     inkscape:window-y="-8"
     inkscape:window-maximized="1"
     inkscape:current-layer="g12" />
  <g
     id="g92"
     style="stroke:#cf7a6e;stroke-width:1.10000002;stroke-linecap:round;stroke-linejoin:round;stroke-miterlimit:4;stroke-dasharray:none;stroke-opacity:1;filter:url(#filter4293)">
    <title
       id="title94">face-addon</title>
    <path
       d="m 24.944,43.585 -8.001,6.5891"
       transform="matrix(0.85618,0,0,0.82492,3.6778,7.764)"
       inkscape:connector-curvature="0"
       id="path96"
       style="stroke-width:1.3088932;stroke-miterlimit:4;stroke-dasharray:none" />
    <path
       d="m 24.944,43.585 -8.001,6.5891"
       transform="matrix(0.85618,0,0,0.82492,9.4687,6.8659)"
       inkscape:connector-curvature="0"
       id="path98"
       style="stroke-width:1.3088932;stroke-miterlimit:4;stroke-dasharray:none" />
    <path
       d="m 24.944,43.585 -8.001,6.5891"
       transform="matrix(0.85618,0,0,0.82492,9.7461,10.693)"
       inkscape:connector-curvature="0"
       id="path100"
       style="stroke-width:1.3088932;stroke-miterlimit:4;stroke-dasharray:none" />
    <path
       d="m 24.944,43.585 -8.001,6.5891"
       transform="matrix(0.85618,0,0,0.82492,16.347,11.581)"
       inkscape:connector-curvature="0"
       id="path102"
       style="stroke-width:1.3088932;stroke-miterlimit:4;stroke-dasharray:none" />
    <path
       d="m 24.944,43.585 -8.001,6.5891"
       transform="matrix(0.85618,0,0,0.82492,19.328,13.385)"
       inkscape:connector-curvature="0"
       id="path104"
       style="stroke-width:1.3088932;stroke-miterlimit:4;stroke-dasharray:none" />
    <path
       d="m 24.944,43.585 -8.001,6.5891"
       transform="matrix(0.85618,0,0,0.82492,24.584,14.012)"
       inkscape:connector-curvature="0"
       id="path106"
       style="stroke-width:1.3088932;stroke-miterlimit:4;stroke-dasharray:none" />
    <path
       d="m 24.944,43.585 -8.001,6.5891"
       transform="matrix(0.85618,0,0,0.82492,27.884,16.462)"
       inkscape:connector-curvature="0"
       id="path108"
       style="stroke-width:1.3088932;stroke-miterlimit:4;stroke-dasharray:none" />
    <path
       d="m 23.001,44.257 -6.0575,5.9167"
       sodipodi:nodetypes="cc"
       transform="matrix(0.85618,0,0,0.82492,35.205,16.683)"
       inkscape:connector-curvature="0"
       id="path110"
       style="stroke-width:1.3088932;stroke-miterlimit:4;stroke-dasharray:none" />
    <path
       d="m 23.519,44.123 -6.5758,6.0511"
       sodipodi:nodetypes="cc"
       transform="matrix(0.85618,0,0,0.82492,40.641,16.905)"
       inkscape:connector-curvature="0"
       id="path112"
       style="stroke-width:1.3088932;stroke-miterlimit:4;stroke-dasharray:none" />
    <path
       d="m 24.944,43.585 -8.001,6.5891"
       transform="matrix(0.85618,0,0,0.82492,42.638,18.458)"
       inkscape:connector-curvature="0"
       id="path114"
       style="stroke-width:1.3088932;stroke-miterlimit:4;stroke-dasharray:none" />
    <path
       d="M 27.536,40.627 16.943,50.174"
       sodipodi:nodetypes="cc"
       transform="matrix(0.85618,0,0,0.82492,42.748,22.785)"
       inkscape:connector-curvature="0"
       id="path116"
       style="stroke-width:1.3088932;stroke-miterlimit:4;stroke-dasharray:none" />
    <path
       d="m 24.944,43.585 -8.001,6.5891"
       transform="matrix(0.85618,0,0,0.82492,47.186,22.674)"
       inkscape:connector-curvature="0"
       id="path118"
       style="stroke-width:1.3088932;stroke-miterlimit:4;stroke-dasharray:none" />
    <path
       d="m 24.944,43.585 -8.001,6.5891"
       transform="matrix(0.85618,0,0,0.82492,49.959,24.338)"
       inkscape:connector-curvature="0"
       id="path120"
       style="stroke-width:1.3088932;stroke-miterlimit:4;stroke-dasharray:none" />
    <path
       d="m 24.944,43.585 -7.2236,7.127"
       sodipodi:nodetypes="cc"
       transform="matrix(0.85618,0,0,0.82492,53.176,25.336)"
       inkscape:connector-curvature="0"
       id="path122"
       style="stroke-width:1.3088932;stroke-miterlimit:4;stroke-dasharray:none" />
    <path
       d="m 24.944,43.585 -7.2236,7.127"
       sodipodi:nodetypes="cc"
       transform="matrix(0.85618,0,0,0.82492,56.726,26.002)"
       inkscape:connector-curvature="0"
       id="path124"
       style="stroke-width:1.3088932;stroke-miterlimit:4;stroke-dasharray:none" />
    <path
       d="m 24.944,43.585 -7.2236,7.127"
       sodipodi:nodetypes="cc"
       transform="matrix(0.85618,0,0,0.82492,63.382,29.663)"
       inkscape:connector-curvature="0"
       id="path126"
       style="stroke-width:1.3088932;stroke-miterlimit:4;stroke-dasharray:none" />
    <path
       d="m 24.944,43.585 -7.2236,7.127"
       sodipodi:nodetypes="cc"
       transform="matrix(0.85618,0,0,0.82492,59.388,28.442)"
       inkscape:connector-curvature="0"
       id="path128"
       style="stroke-width:1.3088932;stroke-miterlimit:4;stroke-dasharray:none" />
  </g>
  <g
     id="g12"
     style="fill:none;stroke:#444444;stroke-width:0.7;stroke-linecap:round;stroke-linejoin:round;stroke-opacity:1;stroke-miterlimit:4;stroke-dasharray:none;filter:url(#filter4189)">
    <path
       sodipodi:nodetypes="ccccccc"
       inkscape:connector-curvature="0"
       d="m 5.4416753,30.114135 c -0.6483547,-1.298166 -3.266186,-7.040508 1.7702765,-3.141507 0.4027473,-5.364104 8.0087592,-2.409094 5.0899132,1.227047 6.054316,-3.463272 3.54301,2.321528 0.942029,4.549185 3.481641,3.772632 -0.04493,5.693414 -3.4832036,2.575645 -1.5264544,-0.124782 -3.9937569,1.789267 -4.5302874,1.079958 0,0 -2.3075114,-1.712587 0.2112723,-6.290328 z"
       id="path86"
       style="stroke:#444444;stroke-width:0.69999999;stroke-miterlimit:4;stroke-dasharray:none;stroke-opacity:1" />
    <path
       sodipodi:nodetypes="ccccccc"
       inkscape:connector-curvature="0"
       d="m 15.087109,12.42408 c -2.9675,0.57041 -10.1529997,7.1917 1.4421,6.2122 -0.89579,4.8686 3.5878,3.8281 5.8794,1.2774 2.143836,3.831487 7.516872,3.118634 2.6624,-3.2741 1.5453,-0.62862 5.2238,-4.1415 0.55466,-6.2122 -3.3178,-9.5726996 -9.6354,-2.0608996 -10.539,1.9968 z"
       id="path88"
       style="stroke:#444444;stroke-width:0.69999999;stroke-miterlimit:4;stroke-dasharray:none;stroke-opacity:1" />
    <path
       sodipodi:nodetypes="ccccccc"
       inkscape:connector-curvature="0"
       d="m 67.336,14.865 c 2.4552,-3.4187 5.0147,-4.1335 7.7653,0.11093 l 0.55466,3.1061 c 1.6758,2.226 0.16585,2.461 -0.3328,3.328 -1.8725,0.08371 -2.5776,2.9694 -5.7685,-0.11093 -5.4979,7.3003 -7.9586,0.62313 -4.1045,-0.55466 -2.9266,-1.0374 -4.5691,-7.5359 1.8859,-5.8794 z"
       id="path90"
       style="stroke:#444444;stroke-opacity:1;stroke-width:0.7;stroke-miterlimit:4;stroke-dasharray:none" />
  </g>
  <path
     style="fill:none;fill-rule:evenodd;stroke:#000000;stroke-width:2;stroke-linecap:round;stroke-linejoin:round;stroke-miterlimit:4;stroke-dasharray:none;stroke-opacity:1"
     d="M 7.558227,68.985834 C 6.537966,59.227876 4.629001,46.21121 25.777924,30.78361 32.518829,23.563081 39.914286,16.16128 46.656712,11.776035 c 1.597654,6.455012 2.180136,12.437014 2.757576,18.416666 L 69.997621,37.28361 86.83853,22.486262"
     id="path4224"
     inkscape:connector-curvature="0"
     sodipodi:nodetypes="cccccc" />
  <circle
     style="opacity:1;fill:#000000;fill-opacity:1;fill-rule:nonzero;stroke:none;stroke-width:0.5;stroke-linecap:round;stroke-linejoin:round;stroke-miterlimit:4;stroke-dasharray:none;stroke-opacity:1"
     id="path4714"
     cx="34.534622"
     cy="43.30883"
     r="5.5466237" />
  <circle
     style="opacity:1;fill:#000000;fill-opacity:1;fill-rule:nonzero;stroke:none;stroke-width:0.5;stroke-linecap:round;stroke-linejoin:round;stroke-miterlimit:4;stroke-dasharray:none;stroke-opacity:1"
     id="path4714-7"
     cx="76.454613"
     cy="56.023384"
     r="5.5466237" />
  <path
     style="fill:none;fill-rule:evenodd;stroke:#000000;stroke-width:1.5;stroke-linecap:round;stroke-linejoin:round;stroke-miterlimit:4;stroke-dasharray:none;stroke-opacity:1"
     d="m 41.193441,53.439272 c -12.002281,10.375799 6.335124,14.17053 9.582877,5.622755 -4.303101,14.159743 11.520233,10.321476 12.110672,1.793952"
     id="path4731"
     inkscape:connector-curvature="0"
     sodipodi:nodetypes="ccc" />
  <path
     style="fill:none;fill-rule:evenodd;stroke:#000000;stroke-width:2;stroke-linecap:round;stroke-linejoin:round;stroke-miterlimit:4;stroke-dasharray:none;stroke-opacity:1"
     d="m 79.113762,45.470382 c 2.588993,1.477439 4.501838,1.919627 5.857123,5.140959"
     id="path4742"
     inkscape:connector-curvature="0"
     sodipodi:nodetypes="cc" />
  <path
     style="fill:none;fill-rule:evenodd;stroke:#000000;stroke-width:2;stroke-linecap:round;stroke-linejoin:round;stroke-miterlimit:4;stroke-dasharray:none;stroke-opacity:1"
     d="m 32.534625,34.656098 c 2.935097,-0.266543 6.683852,-0.261867 10.871383,-0.110932"
     id="path4744"
     inkscape:connector-curvature="0"
     sodipodi:nodetypes="cc" />
</svg>
